<svg width="220" height="82" viewBox="0 0 220 82" fill="none" xmlns="http://www.w3.org/2000/svg">
<path d="M40.8545 80.7297C62.755 80.7297 80.5088 62.8277 80.5088 40.7444C80.5088 18.6612 62.755 0.759155 40.8545 0.759155C18.954 0.759155 1.2002 18.6612 1.2002 40.7444C1.2002 62.8277 18.954 80.7297 40.8545 80.7297Z" fill="#C8DEEE"/>
<path d="M40.8545 81.4889C18.5678 81.4889 0.447266 63.2172 0.447266 40.7445C0.447266 18.2717 18.5678 0 40.8545 0C63.1412 0 81.2617 18.2717 81.2617 40.7445C81.2617 63.2172 63.1412 81.4889 40.8545 81.4889ZM40.8545 1.51843C19.396 1.51843 1.95312 19.1069 1.95312 40.7445C1.95312 62.3821 19.396 79.9705 40.8545 79.9705C62.313 79.9705 79.7559 62.3821 79.7559 40.7445C79.7559 19.1069 62.313 1.51843 40.8545 1.51843Z" fill="white"/>
<path d="M90.4219 0.885742H89.418V80.5779H90.4219V0.885742Z" fill="#8B8C8D"/>
<path d="M104.778 22.7258V21.3845H109.572V25.6108C108.844 26.1929 108.066 26.6484 107.288 26.9521C106.51 27.2558 105.707 27.4076 104.879 27.4076C103.774 27.4076 102.745 27.1799 101.842 26.699C100.938 26.2182 100.236 25.5349 99.7838 24.6238C99.332 23.7128 99.0811 22.7005 99.0811 21.587C99.0811 20.4735 99.3069 19.4359 99.7838 18.4742C100.236 17.5125 100.913 16.8039 101.767 16.3231C102.62 15.8423 103.624 15.6145 104.753 15.6145C105.581 15.6145 106.309 15.741 106.962 16.0194C107.614 16.2978 108.141 16.6521 108.518 17.1329C108.894 17.6138 109.17 18.2211 109.371 19.0057L108.016 19.3853C107.84 18.8032 107.639 18.3477 107.388 18.0187C107.137 17.6897 106.786 17.4113 106.309 17.2089C105.832 17.0064 105.33 16.9052 104.753 16.9052C104.075 16.9052 103.473 17.0064 102.971 17.2089C102.469 17.4113 102.068 17.6897 101.767 18.044C101.465 18.3983 101.214 18.7526 101.064 19.1828C100.788 19.8914 100.637 20.6506 100.637 21.4858C100.637 22.498 100.813 23.3585 101.164 24.0418C101.516 24.7251 102.017 25.2312 102.67 25.5602C103.323 25.8892 104.05 26.0663 104.778 26.0663C105.431 26.0663 106.058 25.9398 106.686 25.6867C107.313 25.4337 107.765 25.1553 108.091 24.8769V22.7511H104.778V22.7258Z" fill="#8E8F8F"/>
<path d="M111.73 27.2051V15.7916H113.236V25.8639H118.808V27.2051H111.73Z" fill="#8E8F8F"/>
<path d="M120.615 27.2051V15.7916H128.797V17.1329H122.121V20.6253H128.37V21.9666H122.121V25.8386H129.073V27.1798H120.615V27.2051Z" fill="#8E8F8F"/>
<path d="M131.156 27.2051V15.7916H139.338V17.1329H132.662V20.6253H138.911V21.9666H132.662V25.8386H139.614V27.1798H131.156V27.2051Z" fill="#8E8F8F"/>
<path d="M141.17 23.5355L142.575 23.409C142.651 23.9911 142.801 24.4466 143.052 24.8262C143.303 25.1805 143.68 25.4842 144.182 25.712C144.684 25.9397 145.286 26.041 145.913 26.041C146.491 26.041 146.993 25.965 147.419 25.7879C147.846 25.6107 148.172 25.383 148.398 25.0793C148.599 24.7756 148.724 24.4466 148.724 24.0923C148.724 23.738 148.624 23.409 148.423 23.1559C148.222 22.8776 147.871 22.6751 147.394 22.4726C147.093 22.3461 146.415 22.169 145.386 21.9159C144.357 21.6628 143.629 21.4351 143.203 21.2073C142.651 20.9289 142.249 20.5746 141.998 20.1444C141.722 19.7142 141.597 19.2586 141.597 18.7272C141.597 18.1451 141.747 17.6137 142.073 17.1075C142.4 16.6014 142.877 16.2218 143.504 15.9687C144.131 15.7156 144.809 15.5891 145.587 15.5891C146.415 15.5891 147.168 15.7156 147.796 15.994C148.448 16.2724 148.925 16.6773 149.276 17.2088C149.628 17.7402 149.804 18.3476 149.829 19.0056L148.398 19.1068C148.323 18.3729 148.072 17.8414 147.62 17.4618C147.168 17.0822 146.516 16.9051 145.637 16.9051C144.734 16.9051 144.081 17.0822 143.655 17.4112C143.228 17.7402 143.027 18.1451 143.027 18.626C143.027 19.0309 143.178 19.3852 143.479 19.6383C143.755 19.8913 144.508 20.1697 145.738 20.4481C146.967 20.7265 147.796 20.9795 148.247 21.182C148.9 21.4857 149.402 21.8653 149.703 22.3461C150.004 22.8269 150.18 23.3584 150.18 23.9658C150.18 24.5731 150.004 25.1552 149.653 25.6867C149.302 26.2181 148.825 26.6483 148.172 26.952C147.52 27.2557 146.792 27.4075 145.989 27.4075C144.96 27.4075 144.106 27.2557 143.404 26.952C142.701 26.6483 142.174 26.1928 141.772 25.5854C141.371 24.9781 141.195 24.2948 141.17 23.5355Z" fill="#8E8F8F"/>
<path d="M151.761 21.6376C151.761 19.7395 152.263 18.2717 153.267 17.1835C154.271 16.0953 155.576 15.5638 157.182 15.5638C158.236 15.5638 159.165 15.8169 160.018 16.3231C160.846 16.8292 161.499 17.5378 161.925 18.4235C162.377 19.3346 162.578 20.3469 162.578 21.4857C162.578 22.6498 162.352 23.6874 161.875 24.5985C161.398 25.5095 160.746 26.1928 159.917 26.6737C159.064 27.1545 158.161 27.3823 157.157 27.3823C156.103 27.3823 155.149 27.1292 154.296 26.5977C153.467 26.0663 152.815 25.3577 152.388 24.472C151.962 23.5862 151.761 22.6498 151.761 21.6376ZM153.317 21.6629C153.317 23.0294 153.693 24.1177 154.421 24.9022C155.149 25.6867 156.078 26.0916 157.182 26.0916C158.311 26.0916 159.24 25.6867 159.968 24.9022C160.695 24.0923 161.072 22.9788 161.072 21.511C161.072 20.5747 160.921 19.7648 160.595 19.0815C160.294 18.3982 159.817 17.8415 159.24 17.4619C158.637 17.0823 157.96 16.8798 157.232 16.8798C156.178 16.8798 155.249 17.2594 154.496 17.9933C153.743 18.7272 153.317 19.942 153.317 21.6629Z" fill="#8E8F8F"/>
<path d="M164.511 27.2051V15.7916H166.042L171.99 24.7503V15.7916H173.42V27.2051H171.889L165.941 18.2464V27.2051H164.511Z" fill="#8E8F8F"/>
<path d="M99.5078 46.3375V34.924H104.527C105.531 34.924 106.309 35.0252 106.836 35.2276C107.363 35.4301 107.79 35.7844 108.091 36.3158C108.417 36.8473 108.568 37.404 108.568 38.0367C108.568 38.8466 108.317 39.5298 107.79 40.0866C107.263 40.6434 106.46 40.9977 105.381 41.1495C105.782 41.352 106.083 41.5291 106.284 41.7063C106.711 42.1112 107.137 42.6173 107.539 43.2247L109.497 46.3375H107.614L106.108 43.9586C105.682 43.2753 105.305 42.7439 105.029 42.3896C104.753 42.0353 104.502 41.7822 104.276 41.6303C104.05 41.4785 103.825 41.3773 103.599 41.3267C103.423 41.3013 103.147 41.276 102.771 41.276H101.039V46.3375H99.5078ZM101.014 39.9601H104.226C104.904 39.9601 105.456 39.8841 105.832 39.7576C106.209 39.6058 106.51 39.378 106.711 39.0743C106.912 38.7706 107.012 38.4163 107.012 38.062C107.012 37.5306 106.811 37.0751 106.435 36.7208C106.058 36.3665 105.431 36.1893 104.603 36.1893H101.014V39.9601Z" fill="#8E8F8F"/>
<path d="M110.952 46.3375V34.924H119.134V36.2652H112.458V39.7576H118.707V41.0989H112.458V44.9709H119.41V46.3122H110.952V46.3375Z" fill="#8E8F8F"/>
<path d="M129.524 42.3389L131.03 42.7185C130.704 43.9585 130.152 44.8949 129.324 45.5529C128.495 46.2109 127.517 46.5399 126.337 46.5399C125.107 46.5399 124.128 46.2868 123.35 45.7806C122.597 45.2745 121.995 44.5659 121.594 43.6042C121.192 42.6426 120.991 41.6303 120.991 40.5421C120.991 39.3526 121.217 38.315 121.669 37.4293C122.121 36.5435 122.748 35.8603 123.601 35.4047C124.43 34.9492 125.358 34.7214 126.337 34.7214C127.466 34.7214 128.42 34.9998 129.198 35.5819C129.976 36.1639 130.503 36.9738 130.804 38.0367L129.324 38.391C129.073 37.5558 128.671 36.9485 128.169 36.5689C127.667 36.1892 127.04 36.0121 126.287 36.0121C125.408 36.0121 124.681 36.2146 124.103 36.6448C123.526 37.075 123.099 37.6318 122.874 38.3404C122.648 39.049 122.522 39.7829 122.522 40.5421C122.522 41.5037 122.673 42.3642 122.949 43.0728C123.225 43.8067 123.677 44.3381 124.254 44.6924C124.831 45.0467 125.484 45.2239 126.186 45.2239C127.015 45.2239 127.742 44.9708 128.32 44.49C128.922 44.0091 129.324 43.3005 129.524 42.3389Z" fill="#8E8F8F"/>
<path d="M132.888 46.3375V34.924H137.907C138.911 34.924 139.689 35.0252 140.216 35.2276C140.743 35.4301 141.17 35.7844 141.471 36.3158C141.797 36.8473 141.948 37.404 141.948 38.0367C141.948 38.8466 141.697 39.5298 141.17 40.0866C140.643 40.6434 139.84 40.9977 138.761 41.1495C139.162 41.352 139.463 41.5291 139.664 41.7063C140.091 42.1112 140.517 42.6173 140.919 43.2247L142.877 46.3375H140.994L139.488 43.9586C139.062 43.2753 138.685 42.7439 138.409 42.3896C138.133 42.0353 137.882 41.7822 137.656 41.6303C137.43 41.4785 137.204 41.3773 136.979 41.3267C136.803 41.3013 136.527 41.276 136.15 41.276H134.419V46.3375H132.888ZM134.394 39.9601H137.606C138.284 39.9601 138.836 39.8841 139.212 39.7576C139.589 39.6058 139.89 39.378 140.091 39.0743C140.292 38.7706 140.392 38.4163 140.392 38.062C140.392 37.5306 140.191 37.0751 139.815 36.7208C139.438 36.3665 138.811 36.1893 137.983 36.1893H134.394V39.9601Z" fill="#8E8F8F"/>
<path d="M151.71 34.924H153.216V41.5291C153.216 42.6679 153.091 43.579 152.84 44.2623C152.589 44.9456 152.112 45.477 151.434 45.9072C150.757 46.3375 149.878 46.5399 148.799 46.5399C147.745 46.5399 146.867 46.3628 146.189 45.9832C145.511 45.6036 145.034 45.0721 144.733 44.3888C144.432 43.7055 144.307 42.7439 144.307 41.5291V34.924H145.812V41.5038C145.812 42.4908 145.913 43.2247 146.089 43.7055C146.264 44.1864 146.591 44.5407 147.042 44.7937C147.494 45.0468 148.021 45.1733 148.674 45.1733C149.778 45.1733 150.556 44.9203 151.033 44.4141C151.51 43.908 151.736 42.9463 151.736 41.5038V34.924H151.71Z" fill="#8E8F8F"/>
<path d="M155.978 46.3375V34.924H157.483V46.3375H155.978Z" fill="#8E8F8F"/>
<path d="M162.98 46.3375V36.2652H159.24V34.924H168.225V36.2652H164.486V46.3375H162.98Z" fill="#8E8F8F"/>
<path d="M169.731 46.3375V34.924H171.99L174.676 42.9969C174.927 43.7561 175.102 44.3129 175.228 44.6925C175.353 44.2876 175.554 43.6549 175.83 42.8704L178.541 34.924H180.549V46.3375H179.093V36.7967L175.78 46.3375H174.425L171.162 36.6195V46.3375H169.731Z" fill="#8E8F8F"/>
<path d="M182.957 46.3375V34.924H191.139V36.2652H184.463V39.7576H190.712V41.0989H184.463V44.9709H191.415V46.3122H182.957V46.3375Z" fill="#8E8F8F"/>
<path d="M193.474 46.3375V34.924H195.005L200.953 43.8827V34.924H202.383V46.3375H200.852L194.904 37.3787V46.3375H193.474Z" fill="#8E8F8F"/>
<path d="M207.779 46.3375V36.2652H204.039V34.924H212.999V36.2652H209.259V46.3375H207.779Z" fill="#8E8F8F"/>
<path d="M104.778 60.9902V59.6489H109.572V63.8752C108.844 64.4573 108.066 64.9128 107.288 65.2165C106.51 65.5202 105.707 65.672 104.879 65.672C103.774 65.672 102.745 65.4443 101.842 64.9634C100.938 64.4826 100.236 63.7993 99.7838 62.8882C99.332 61.9772 99.0811 60.9649 99.0811 59.8514C99.0811 58.7379 99.3069 57.7003 99.7838 56.7386C100.236 55.7769 100.913 55.0683 101.767 54.5875C102.62 54.1067 103.624 53.8789 104.753 53.8789C105.581 53.8789 106.309 54.0054 106.962 54.2838C107.614 54.5622 108.141 54.9165 108.518 55.3973C108.894 55.8782 109.17 56.4855 109.371 57.2701L108.016 57.6497C107.84 57.0676 107.639 56.6121 107.388 56.2831C107.137 55.9541 106.786 55.6757 106.309 55.4733C105.832 55.2708 105.33 55.1696 104.753 55.1696C104.075 55.1696 103.473 55.2708 102.971 55.4733C102.469 55.6757 102.068 55.9541 101.767 56.3084C101.465 56.6627 101.214 57.017 101.064 57.4472C100.788 58.1558 100.637 58.915 100.637 59.7502C100.637 60.7624 100.813 61.6229 101.164 62.3062C101.516 62.9895 102.017 63.4956 102.67 63.8246C103.323 64.1536 104.05 64.3307 104.778 64.3307C105.431 64.3307 106.058 64.2042 106.686 63.9511C107.313 63.6981 107.765 63.4197 108.091 63.1413V61.0155H104.778V60.9902Z" fill="#8E8F8F"/>
<path d="M111.806 65.4695V54.056H116.825C117.829 54.056 118.607 54.1573 119.134 54.3597C119.661 54.5622 120.088 54.9165 120.389 55.4479C120.69 55.9794 120.866 56.5361 120.866 57.1688C120.866 57.9786 120.615 58.6619 120.088 59.2187C119.561 59.7754 118.758 60.1297 117.679 60.2816C118.08 60.484 118.381 60.6612 118.582 60.8383C119.009 61.2433 119.435 61.7494 119.837 62.3568L121.795 65.4695H119.912L118.406 63.0907C117.98 62.4074 117.603 61.8759 117.327 61.5216C117.051 61.1673 116.8 60.9143 116.574 60.7624C116.348 60.6106 116.122 60.5093 115.897 60.4587C115.721 60.4334 115.445 60.4081 115.068 60.4081H113.337V65.4695H111.806ZM113.312 59.0921H116.524C117.202 59.0921 117.754 59.0162 118.13 58.8897C118.507 58.7378 118.808 58.5101 119.009 58.2064C119.209 57.9027 119.31 57.5484 119.31 57.1941C119.31 56.6627 119.109 56.2071 118.733 55.8528C118.356 55.4985 117.729 55.3214 116.9 55.3214H113.312V59.0921Z" fill="#8E8F8F"/>
<path d="M122.748 59.902C122.748 58.0039 123.25 56.5361 124.254 55.4479C125.258 54.385 126.563 53.8282 128.169 53.8282C129.223 53.8282 130.152 54.0813 131.005 54.5875C131.859 55.0936 132.486 55.8022 132.913 56.6879C133.364 57.599 133.565 58.6113 133.565 59.7501C133.565 60.9142 133.339 61.9518 132.862 62.8629C132.386 63.7739 131.733 64.4572 130.905 64.9381C130.051 65.4189 129.148 65.6467 128.144 65.6467C127.09 65.6467 126.136 65.3936 125.283 64.8622C124.455 64.3307 123.802 63.6221 123.375 62.7364C122.949 61.8506 122.748 60.9142 122.748 59.902ZM124.304 59.9273C124.304 61.2939 124.681 62.3821 125.408 63.1666C126.136 63.9511 127.065 64.356 128.169 64.356C129.299 64.356 130.227 63.9511 130.955 63.1666C131.683 62.3567 132.059 61.2432 132.059 59.7754C132.059 58.8391 131.909 58.0292 131.582 57.3459C131.281 56.6626 130.804 56.1059 130.227 55.7263C129.625 55.3467 128.947 55.1442 128.219 55.1442C127.165 55.1442 126.237 55.5238 125.484 56.2577C124.681 56.9916 124.304 58.2064 124.304 59.9273Z" fill="#8E8F8F"/>
<path d="M142.926 54.056H144.432V60.6612C144.432 61.8 144.307 62.7111 144.056 63.3944C143.805 64.0777 143.328 64.6091 142.65 65.0393C141.973 65.4695 141.094 65.672 140.015 65.672C138.961 65.672 138.082 65.4949 137.405 65.1152C136.727 64.7356 136.25 64.2042 135.949 63.5209C135.673 62.8123 135.522 61.8759 135.522 60.6612V54.056H137.028V60.6359C137.028 61.6229 137.129 62.3568 137.304 62.8376C137.48 63.3184 137.806 63.6727 138.258 63.9258C138.71 64.1789 139.237 64.3054 139.889 64.3054C140.994 64.3054 141.772 64.0523 142.249 63.5462C142.725 63.0401 142.951 62.0784 142.951 60.6359V54.056H142.926Z" fill="#8E8F8F"/>
<path d="M146.917 65.4695V54.056H151.184C151.937 54.056 152.514 54.0813 152.915 54.1573C153.467 54.2585 153.944 54.4356 154.321 54.6887C154.697 54.9418 154.998 55.3214 155.224 55.8022C155.45 56.2831 155.576 56.7892 155.576 57.3713C155.576 58.3329 155.275 59.1681 154.647 59.8261C154.045 60.5093 152.94 60.8383 151.334 60.8383H148.423V65.4695H146.917ZM148.423 59.4718H151.359C152.338 59.4718 153.016 59.2946 153.417 58.915C153.819 58.5607 154.02 58.0293 154.02 57.3713C154.02 56.8904 153.894 56.4855 153.668 56.1565C153.417 55.8275 153.116 55.5998 152.715 55.4732C152.464 55.3973 151.987 55.372 151.309 55.372H148.423V59.4718Z" fill="#8E8F8F"/>
<path d="M35.4832 65.9504C35.4832 65.9504 37.2149 62.4833 37.4659 61.5469C37.4659 61.5469 39.5239 56.5108 38.4447 50.6649C38.4447 50.6649 37.8172 44.0597 30.4134 43.9332C30.4134 43.9332 27.9288 44.0344 25.0927 44.9202C25.0927 44.9202 20.1234 46.717 15.9321 45.1226C15.9321 45.1226 18.492 46.059 23.2606 44.2875C23.2606 44.2875 29.9115 41.529 33.8769 42.1364C33.8769 42.1364 29.6103 37.6064 21.052 36.012C21.052 36.012 16.5595 34.7973 14.2756 36.6447L11.9667 38.4668C11.9667 38.4668 13.6482 35.8096 15.0788 35.101C15.0788 35.101 8.42788 33.7597 10.0843 27.5089C10.0843 27.5089 9.3565 33.3801 15.7062 33.5066C15.7062 33.5066 25.1429 33.6585 27.477 34.7973C27.477 34.7973 27.2511 34.6708 26.8998 33.9116C26.8998 33.9116 26.1217 32.2413 26.0715 32.0641L25.7202 31.0772L25.2935 29.4575C25.2935 29.4575 24.5908 25.6361 21.0269 25.459C21.0269 25.459 19.2952 25.4843 18.3917 25.3831C18.3917 25.3831 15.2293 25.3071 14.6019 23.0295C14.6019 23.0295 15.3297 24.6998 17.6638 24.7504C17.6638 24.7504 18.743 24.801 20.4999 24.5479C20.4999 24.5479 23.1602 24.0418 25.2182 26.3194L25.3437 22.574L25.5445 17.6391L25.7453 14.3238L26.0464 17.6644L26.3476 22.0678L26.6488 26.3447C26.6488 26.3447 26.8747 30.1914 28.4809 32.545C28.4809 32.545 29.3091 34.1393 30.9907 35.6071C30.9907 35.6071 31.7687 36.4929 32.5467 36.8219C32.5467 36.8219 35.8345 38.4162 38.9466 42.3388L35.7592 36.7206C35.7592 36.7206 33.3248 32.1654 32.6471 28.0909C32.6471 28.0909 32.0448 24.5985 30.8903 21.3845L30.4385 20.0433C30.4385 20.0433 29.8864 18.4742 28.9578 16.0953C28.9578 16.0953 28.0041 13.8177 28.7821 12.2487C28.7821 12.2487 28.3303 13.8683 29.4346 15.9435C29.4346 15.9435 31.5428 20.0433 32.1201 21.8148C32.1201 21.8148 32.2958 16.2472 33.4753 13.6912C33.4753 13.6912 32.5467 18.5248 33.1742 23.4091C33.1742 23.4091 33.5506 27.3823 35.5835 32.1401C35.6337 32.2919 35.7592 32.4184 35.8094 32.545C36.2612 33.4307 38.1435 36.999 40.3772 40.2636L41.5819 42.3388C41.7325 42.5919 41.8831 42.845 42.0587 43.0727C42.2093 43.3005 42.4352 43.7054 42.4352 44.2116C42.4352 44.4646 42.4352 44.743 42.4352 44.9961C42.4854 45.8059 42.5356 47.5015 42.385 49.1464C42.4352 49.1211 42.1089 58.9909 35.4832 65.9504Z" fill="white"/>
<path d="M25.1426 77.5664C25.1426 77.5664 28.6061 76.2504 33.5001 69.291C33.6507 69.0885 33.8013 68.8607 33.9268 68.633C34.1275 68.3293 34.5291 67.7725 35.1064 67.2664C35.2569 67.1399 35.3824 67.0386 35.5079 66.8868C36.2106 66.1782 38.5196 63.6981 39.5737 61.7747C39.5737 61.7747 41.6819 57.9787 42.0584 55.9035C42.0835 55.701 42.1337 55.4986 42.1839 55.2961C42.4349 54.2332 43.0874 51.2976 43.0874 48.8681C43.0874 48.8681 43.0372 43.503 41.5564 37.5811L40.0255 31.1278C40.0255 31.1278 38.2185 23.8647 38.1432 20.5241C38.1432 20.1192 38.093 19.7143 38.0428 19.3094C37.8169 17.715 37.5157 13.1091 39.7745 6.9342C39.7745 6.9342 38.9965 11.0593 39.1471 13.7671C39.1471 13.7671 39.4231 19.8915 40.6278 23.1055C40.6278 23.1055 41.4561 21.334 43.3886 19.5372C43.3886 19.5372 46.0238 16.8546 45.4215 14.501C45.4215 14.501 46.827 16.475 44.0662 19.9927L42.4851 22.1691C42.4851 22.1691 41.7572 23.232 41.5313 24.0165C41.5313 24.0165 41.0796 25.3072 41.5815 26.5725C41.5815 26.5725 42.46 29.4575 43.3886 32.0642C43.3886 32.0642 44.5431 30.6976 45.3462 29.8878C45.8481 29.3816 46.2999 28.8502 46.7015 28.2681C47.605 26.9521 49.0355 24.7504 49.3618 23.3585C49.3618 23.3585 50.7171 19.6131 50.5414 15.8929C50.5414 15.8929 51.3194 20.4735 50.441 23.3079C50.3908 23.4598 50.3406 23.6369 50.2904 23.7887C50.0395 24.801 48.885 29.0526 46.4003 31.558L45.3713 32.6715C45.3713 32.6715 44.5431 33.5067 44.6937 34.8733C44.6937 34.8733 44.8944 37.5305 45.3211 38.973C45.3462 39.0996 45.3964 39.2261 45.4215 39.3273C45.6474 40.2637 46.576 44.3634 46.576 44.819C46.576 44.819 46.8019 45.73 46.4003 46.8942C46.3501 47.046 46.2999 47.1725 46.2748 47.3244C46.074 48.1089 45.4215 50.8168 45.3713 51.3229C45.3713 51.3229 44.8944 54.5116 44.8191 55.7517C44.8191 55.9035 44.794 56.0553 44.794 56.2072C44.7438 56.8905 44.6184 58.915 44.8191 60.7625C44.8191 60.7625 45.0701 63.5462 45.3713 64.6851C45.3713 64.6851 46.074 67.3423 46.827 68.6077C46.827 68.6077 47.8309 70.6322 48.8348 71.6445C48.8348 71.6445 50.8426 74.4283 56.1131 76.1998C56.1131 76.1998 57.6189 76.7566 58.4974 76.8578L55.4606 78.1991C55.4606 78.1991 43.9658 83.1593 31.2162 79.6669L25.1426 77.5664Z" fill="white"/>
<path d="M55.1095 75.6178C55.1095 75.6178 52.399 74.4283 51.3951 73.416C51.3951 73.416 48.4837 70.8094 47.5551 68.5824C47.5551 68.5824 45.8736 65.3178 45.6477 62.4074C45.6226 62.0278 45.5975 61.6482 45.5473 61.2939C45.3716 60.1045 45.0955 56.7639 45.8736 50.6649C45.8736 50.6649 47.2288 44.1357 47.5551 43.4777C47.5551 43.4777 48.6343 39.2767 50.1402 37.5052C50.1402 37.5052 51.8719 35.1264 53.177 34.0635C53.3025 33.9622 53.4029 33.8863 53.5033 33.7598C54.1307 33.1524 56.3644 30.976 56.8412 29.8878C56.8412 29.8878 58.1212 27.8632 58.2718 25.3325C58.2718 25.3325 58.8993 20.5241 55.8373 16.7787C55.8373 16.7787 59.5016 19.7649 59.602 25.3325C59.602 25.3325 59.9534 29.8372 56.5401 33.7851C56.5401 33.7851 62.4882 30.6976 64.5964 28.9514C64.6717 28.8755 64.747 28.8249 64.8474 28.749C65.4999 28.2681 68.8128 25.5856 69.7163 21.0303C69.7163 21.0303 70.2685 25.0035 65.6003 29.8625C65.6003 29.8625 63.6929 31.9123 60.9322 33.6838C60.9322 33.6838 62.4882 33.7851 64.1447 34.2659C64.3705 34.3418 64.5713 34.3924 64.7972 34.4178C65.3242 34.519 66.4034 34.6708 67.4576 34.6708C67.4576 34.6708 69.1642 34.7214 69.8167 32.545C69.8167 32.545 70.4191 34.1141 68.1854 35.1517C68.1854 35.1517 67.2317 35.835 64.5964 35.4047C64.496 35.3794 64.4207 35.3794 64.3203 35.3541C63.7431 35.2529 61.3839 34.8227 59.8781 35.2276C59.8781 35.2276 56.9165 35.9362 54.4068 38.4669C54.4068 38.4669 52.675 40.3902 52.5495 40.6939C52.5495 40.6939 52.148 41.5037 51.3951 42.263C51.3951 42.263 49.3872 44.7937 48.3833 47.8305C48.3833 47.8305 46.4508 52.9426 47.0783 57.6497C47.1033 57.8268 47.1284 57.9787 47.1284 58.1558C47.2037 58.8644 47.4798 61.2939 48.1073 63.0148C48.1073 63.0148 48.7096 64.4573 48.8351 66.0263C48.8602 66.4819 48.9104 66.9374 49.0108 67.3676C49.2116 68.3546 49.6131 69.9236 50.1151 70.6069C50.1402 70.6322 52.0225 74.3018 55.1095 75.6178Z" fill="white"/>
<path d="M48.8603 63.4956C48.8603 63.4956 47.6305 60.5094 47.5552 56.9917C47.5552 56.9917 47.3795 53.9548 47.8814 51.6772C47.8814 51.6772 48.8603 46.9447 50.4916 44.2369C50.592 44.085 50.6924 43.9079 50.7677 43.756C50.9685 43.4017 51.621 42.2882 52.2484 41.6556C52.3739 41.529 52.4994 41.4278 52.6249 41.3266C52.6249 41.3266 55.8123 38.7452 60.4805 39.5298C60.4805 39.5298 62.2624 39.7828 63.7181 40.289C63.7181 40.289 66.0522 41.0988 67.7588 40.5673C67.7588 40.5673 70.645 40.0359 71.0466 36.746C71.0466 36.746 71.4983 40.1371 67.9596 41.4784C67.9596 41.4784 66.9808 42.0352 64.1698 41.8327C63.9941 41.8327 63.8436 41.8074 63.6679 41.7821C63.0404 41.6809 61.3589 41.4531 60.4805 41.3772C60.4805 41.3772 56.8413 40.9723 53.4782 43.7813C53.4782 43.7813 50.4665 46.4133 49.8893 49.8551C49.8642 49.9816 49.8391 50.1081 49.814 50.2347C49.7387 50.513 49.6132 51.2976 49.6132 52.6895C49.6132 52.6895 49.6132 56.5108 49.4124 57.928C49.3622 58.3076 49.3371 58.6872 49.312 59.0922C49.2367 60.4334 49.0359 63.0654 48.8603 63.4956Z" fill="white"/>
<path d="M9.70801 20.0686C9.70801 20.0686 9.98408 20.1698 10.5613 21.3593C10.8876 22.0679 11.1135 22.8018 11.515 23.4851C11.9668 24.2443 12.2429 24.4467 12.5942 24.7251C13.5981 25.4843 14.4013 25.0794 14.9032 24.5733C14.2256 24.3202 11.8664 23.3079 11.4146 21.258C11.4146 21.258 13.3472 24.0165 15.4554 23.8394C15.4805 23.7888 15.5056 23.7634 15.5056 23.7634C17.1369 20.5241 9.70801 20.0686 9.70801 20.0686Z" fill="#E4368B"/>
<path d="M13.473 25.8132C13.473 25.8132 13.4228 26.0157 12.6197 26.4712C12.1428 26.7243 11.6409 26.9267 11.1891 27.2304C10.6872 27.5847 10.5617 27.7872 10.386 28.0403C9.90915 28.7742 10.2103 29.3309 10.5868 29.6599C10.7374 29.1791 11.3397 27.4835 12.7201 27.0786C12.7201 27.0786 10.9131 28.5464 11.1138 30.0142C11.1389 30.0395 11.164 30.0395 11.164 30.0395C13.473 31.0265 13.473 25.8132 13.473 25.8132Z" fill="#F08D03"/>
<path d="M9.15625 35.4806C9.15625 35.4806 9.33193 35.4806 9.85899 36.0879C10.1853 36.4422 10.4362 36.8471 10.7876 37.1761C11.1641 37.5304 11.3648 37.6064 11.6158 37.6823C12.3186 37.91 12.6699 37.4545 12.8707 36.999C12.444 36.999 10.9633 36.9737 10.3358 35.8095C10.3358 35.8095 11.917 37.0496 13.0464 36.3916C13.0464 36.3663 13.0464 36.341 13.0464 36.341C13.3225 33.8862 9.15625 35.4806 9.15625 35.4806Z" fill="#8D8E8E"/>
<path d="M21.4287 14.7288C21.4287 14.7288 21.6295 14.8553 21.8052 15.9182C21.9056 16.5256 21.9307 17.1582 22.0812 17.7656C22.2569 18.4489 22.4326 18.6767 22.6334 18.9551C23.2608 19.7649 23.9636 19.613 24.4404 19.36C23.9636 19.0057 22.3824 17.715 22.4577 16.07C22.4577 16.07 23.3612 18.6007 25.0177 18.9297C25.0428 18.9044 25.0679 18.8791 25.0679 18.8791C27.0506 16.6774 21.4287 14.7288 21.4287 14.7288Z" fill="#8D8E8E"/>
<path d="M30.2385 10.7809C30.2385 10.7809 30.2134 10.8821 29.7114 11.0846C29.4103 11.1858 29.1091 11.2617 28.833 11.4136C28.5319 11.5654 28.4315 11.6666 28.3311 11.7932C28.0299 12.1728 28.2307 12.5018 28.4566 12.7295C28.5569 12.4765 28.9334 11.5654 29.7867 11.4389C29.7867 11.4389 28.6573 12.1222 28.7828 12.9826C28.8079 12.9826 28.8079 13.0079 28.8079 13.0079C30.2134 13.7671 30.2385 10.7809 30.2385 10.7809Z" fill="#8D8E8E"/>
<path d="M34.4545 6.2002C34.4545 6.2002 34.5298 6.47857 33.7769 7.59209C33.3502 8.25007 32.8232 8.83214 32.4718 9.51543C32.0703 10.2999 32.0201 10.6542 31.9699 11.0845C31.8444 12.3498 32.5973 12.8307 33.2749 13.0078C33.1495 12.2992 32.7981 9.74319 34.2789 8.30069C34.2789 8.30069 32.9236 11.3882 34.1785 13.1343C34.2287 13.1343 34.2538 13.1343 34.2538 13.1343C37.8929 12.8307 34.4545 6.2002 34.4545 6.2002Z" fill="#224190"/>
<path d="M36.2865 13.2863C36.2865 13.2863 36.2614 13.4887 35.5335 14.0455C35.1069 14.3745 34.63 14.6275 34.2285 15.0071C33.7767 15.4121 33.6763 15.6398 33.5508 15.9182C33.1744 16.7027 33.5508 17.2089 33.9524 17.4872C34.0277 16.9811 34.4041 15.2349 35.7092 14.6528C35.7092 14.6528 34.103 16.3484 34.5296 17.7909C34.5547 17.7909 34.5798 17.8162 34.5798 17.8162C36.9892 18.4489 36.2865 13.2863 36.2865 13.2863Z" fill="#8D8E8E"/>
<path d="M75.0627 34.9745C75.0627 34.9745 74.9372 35.1263 74.0086 35.1263C73.4564 35.1263 72.9294 35.0504 72.4023 35.1263C71.8 35.2022 71.5741 35.3035 71.3231 35.4553C70.5451 35.8855 70.5702 36.5182 70.7459 36.9737C71.0972 36.6194 72.4274 35.43 73.8329 35.7084C73.8329 35.7084 71.549 36.1386 71.047 37.5305C71.0721 37.5558 71.0721 37.5811 71.0721 37.5811C72.6282 39.5551 75.0627 34.9745 75.0627 34.9745Z" fill="#224190"/>
<path d="M54.8339 11.3882C54.8339 11.3882 54.9594 11.5906 54.6833 12.6029C54.5327 13.2103 54.2818 13.7671 54.1814 14.3744C54.0559 15.0577 54.1312 15.3361 54.2065 15.6651C54.4324 16.6268 55.11 16.8039 55.6621 16.7786C55.3861 16.2725 54.5076 14.4503 55.2606 13.0078C55.2606 13.0078 55.0096 15.6398 56.3649 16.6268C56.4151 16.6015 56.4151 16.6015 56.4151 16.6015C59.0252 15.4879 54.8339 11.3882 54.8339 11.3882Z" fill="#8D8E8E"/>
<path d="M68.3866 16.146C68.3866 16.146 68.5121 16.3485 68.2361 17.3607C68.0855 17.9681 67.8345 18.5249 67.7341 19.1322C67.6086 19.8155 67.6839 20.0939 67.7592 20.4229C67.9851 21.3846 68.6627 21.5617 69.2149 21.5364C68.9388 21.0303 68.0604 19.2082 68.8133 17.7657C68.8133 17.7657 68.5623 20.3976 69.9176 21.3846C69.9678 21.3593 69.9678 21.3593 69.9678 21.3593C72.578 20.2458 68.3866 16.146 68.3866 16.146Z" fill="#8B3E8F"/>
<path d="M52.5498 18.8538C52.5498 18.8538 52.7004 18.7778 53.4282 19.1321C53.8549 19.3346 54.2564 19.613 54.7082 19.7648C55.2102 19.942 55.4109 19.9167 55.6619 19.8914C56.3897 19.8154 56.5403 19.2587 56.5403 18.7778C56.1639 18.955 54.7835 19.4864 53.7545 18.6766C53.7545 18.6766 55.687 19.2081 56.465 18.1705C56.465 18.1452 56.4399 18.1199 56.4399 18.1199C55.7623 15.7663 52.5498 18.8538 52.5498 18.8538Z" fill="#8D8E8E"/>
<path d="M17.4639 50.6649C17.4639 50.6649 17.5141 50.4624 18.3925 50.0322C18.8944 49.7791 19.4215 49.602 19.8983 49.3236C20.4254 48.9946 20.576 48.7921 20.7768 48.5391C21.3038 47.8052 21.0026 47.2231 20.6513 46.8688C20.4756 47.3496 19.7729 49.0705 18.3172 49.4248C18.3172 49.4248 20.2748 48.0076 20.1242 46.4639C20.0991 46.4386 20.074 46.4386 20.074 46.4386C17.7148 45.2744 17.4639 50.6649 17.4639 50.6649Z" fill="#8D8E8E"/>
<path d="M31.8195 49.7792C31.8195 49.7792 31.7694 49.5514 32.3466 48.6656C32.698 48.1342 33.0995 47.6787 33.4007 47.1219C33.727 46.4892 33.7521 46.2109 33.8023 45.8819C33.9027 44.8696 33.3003 44.49 32.7482 44.3381C32.8486 44.9202 33.1246 46.9448 31.945 48.1089C31.945 48.1089 33.0242 45.6541 32.0203 44.2622C31.9701 44.2622 31.945 44.2622 31.945 44.2622C29.0588 44.49 31.8195 49.7792 31.8195 49.7792Z" fill="#568F32"/>
<path d="M15.6816 39.7575C15.6816 39.7575 15.7569 39.5803 16.535 39.2766C16.9867 39.0995 17.4636 38.973 17.9153 38.7452C18.4173 38.4921 18.5679 38.315 18.7436 38.1125C19.2706 37.5051 19.0447 36.9737 18.7436 36.6194C18.5428 37.0496 17.8149 38.5174 16.5099 38.7199C16.5099 38.7199 18.342 37.6064 18.3169 36.2398C18.2918 36.2145 18.2667 36.2145 18.2667 36.2145C16.284 34.9997 15.6816 39.7575 15.6816 39.7575Z" fill="#8D8E8E"/>
<path d="M23.5623 30.3938C23.5623 30.3938 23.6125 30.5456 23.1607 31.1277C22.9098 31.4567 22.6086 31.7604 22.3827 32.1147C22.1317 32.5196 22.1066 32.6967 22.0815 32.9245C22.0062 33.5825 22.458 33.8103 22.8596 33.9115C22.7843 33.5572 22.5584 32.2412 23.4368 31.482C23.4368 31.482 22.6337 33.0764 23.3866 33.9368C23.4117 33.9368 23.4368 33.9368 23.4368 33.9368C25.6454 33.7596 23.5623 30.3938 23.5623 30.3938Z" fill="#8D8E8E"/>
<path d="M21.9561 29.5081C21.9561 29.5081 21.8808 29.3562 22.0816 28.6476C22.207 28.2174 22.3827 27.8378 22.458 27.3823C22.5584 26.9014 22.5082 26.699 22.458 26.4712C22.3074 25.7626 21.8306 25.6361 21.429 25.6614C21.6298 26.0157 22.2321 27.3317 21.68 28.3693C21.68 28.3693 21.8808 26.4712 20.9271 25.7626C20.902 25.7626 20.8769 25.7879 20.8769 25.7879C18.9694 26.5218 21.9561 29.5081 21.9561 29.5081Z" fill="#8D8E8E"/>
<path d="M30.0881 22.6499C30.0881 22.6499 29.9877 22.7511 29.2598 22.7258C28.8332 22.7005 28.4316 22.6246 28.03 22.6499C27.5532 22.6752 27.4026 22.7511 27.1767 22.8523C26.5744 23.156 26.5744 23.6368 26.6748 23.9911C26.9508 23.7381 28.03 22.8776 29.0841 23.156C29.0841 23.156 27.3022 23.3838 26.8756 24.4467C26.9006 24.472 26.9006 24.472 26.9006 24.472C28.03 26.0916 30.0881 22.6499 30.0881 22.6499Z" fill="#8D8E8E"/>
<path d="M29.2598 25.9651C29.2598 25.9651 29.3853 25.9651 29.7366 26.4206C29.9374 26.6737 30.1131 26.952 30.3641 27.1798C30.615 27.4329 30.7656 27.5088 30.9413 27.5594C31.4433 27.7619 31.7193 27.5088 31.8699 27.2557C31.5687 27.2304 30.4896 27.0533 30.088 26.2688C30.088 26.2688 31.1672 27.2051 32.0205 26.9014C32.0205 26.8761 32.0205 26.8761 32.0205 26.8761C32.3468 25.3577 29.2598 25.9651 29.2598 25.9651Z" fill="#8D8E8E"/>
<path d="M30.4141 33.3295C30.4141 33.3295 30.5647 33.3295 31.0164 33.8862C31.2674 34.1899 31.4933 34.5442 31.7693 34.8479C32.0956 35.1769 32.2713 35.2528 32.4721 35.3287C33.0744 35.5818 33.4258 35.2781 33.6266 34.9491C33.2501 34.8985 31.945 34.696 31.4431 33.7344C31.4431 33.7344 32.7732 34.8732 33.8273 34.4936C33.8273 34.4683 33.8273 34.443 33.8273 34.443C34.2289 32.5702 30.4141 33.3295 30.4141 33.3295Z" fill="#EB6639"/>
<path d="M63.6685 24.5732C63.6685 24.5732 63.6183 24.801 62.6897 25.3325C62.1375 25.6361 61.5854 25.8639 61.0583 26.2435C60.4811 26.6484 60.3305 26.8762 60.1548 27.1799C59.6278 28.0403 59.9791 28.673 60.4058 29.0273C60.5564 28.4705 61.234 26.5219 62.8152 26.0157C62.8152 26.0157 60.7571 27.7366 61.0081 29.4322C61.0332 29.4575 61.0583 29.4575 61.0583 29.4575C63.7438 30.571 63.6685 24.5732 63.6685 24.5732Z" fill="#074B3B"/>
<path d="M65.4253 21.0303C65.4253 21.0303 65.5508 21.1821 65.4755 22.1185C65.4253 22.6752 65.2998 23.2067 65.2998 23.7634C65.2998 24.3708 65.4002 24.6239 65.5006 24.9023C65.8269 25.7374 66.4794 25.788 66.9563 25.6615C66.63 25.2566 65.601 23.7887 66.0276 22.3969C66.0276 22.3969 66.2033 24.7504 67.5335 25.4337C67.5586 25.4084 67.5837 25.4084 67.5837 25.4084C69.7421 24.0165 65.4253 21.0303 65.4253 21.0303Z" fill="#8D8E8E"/>
<path d="M45.046 25.3324C45.046 25.3324 44.8954 25.4083 44.6946 26.1928C44.5692 26.6484 44.5441 27.1292 44.3935 27.5594C44.2178 28.0656 44.0923 28.2174 43.9166 28.4199C43.4147 29.0019 42.8876 28.8501 42.5362 28.6223C42.9127 28.3946 44.1676 27.5088 44.1927 26.2435C44.1927 26.2435 43.3896 28.1162 42.1096 28.268C42.0845 28.2427 42.0845 28.2427 42.0845 28.2427C40.7041 26.4965 45.046 25.3324 45.046 25.3324Z" fill="#8D8E8E"/>
<path d="M44.7197 9.86975C44.7197 9.86975 44.6946 10.0469 45.1714 10.7049C45.4475 11.0845 45.7738 11.4135 46.0247 11.8184C46.3008 12.2739 46.3259 12.4764 46.3761 12.7548C46.5016 13.514 46.0498 13.8177 45.6483 13.9695C45.6985 13.5393 45.824 11.9955 44.8953 11.1604C44.8953 11.1604 45.7989 12.9825 45.1212 14.0707C45.0961 14.0707 45.071 14.0707 45.071 14.0707C42.8624 13.9695 44.7197 9.86975 44.7197 9.86975Z" fill="#8D8E8E"/>
<path d="M37.5418 25.459C37.5418 25.459 37.5167 25.6614 36.7638 26.2182C36.3371 26.5472 35.8603 26.8003 35.4336 27.1799C34.9818 27.5848 34.8564 27.8125 34.7309 28.0909C34.3544 28.9008 34.7309 29.4069 35.1575 29.6853C35.2328 29.1791 35.6093 27.4076 36.9395 26.8256C36.9395 26.8256 35.3332 28.5465 35.7348 29.989C35.7599 29.989 35.785 30.0143 35.785 30.0143C38.2696 30.6723 37.5418 25.459 37.5418 25.459Z" fill="#8D8E8E"/>
<path d="M36.6885 6.14966C36.6885 6.14966 36.6885 6.32681 37.3159 6.83295C37.6673 7.13664 38.0689 7.3644 38.4202 7.7187C38.7967 8.09831 38.872 8.30076 38.9724 8.52853C39.2736 9.23713 38.8971 9.64204 38.5457 9.86981C38.4955 9.43959 38.2446 7.89585 37.1403 7.31379C37.1403 7.31379 38.4453 8.85752 38.0438 10.0723C38.0187 10.0723 37.9936 10.0723 37.9936 10.0723C35.8603 10.6037 36.6885 6.14966 36.6885 6.14966Z" fill="#8D8E8E"/>
<path d="M75.2383 40.5673C75.2383 40.5673 75.0375 40.5926 74.2846 40.0612C73.8328 39.7322 73.4563 39.3779 72.9795 39.0995C72.4524 38.7958 72.2015 38.7452 71.9254 38.7199C71.047 38.5934 70.6956 39.1248 70.5701 39.5803C71.0721 39.5044 72.8289 39.3273 73.7826 40.4155C73.7826 40.4155 71.6995 39.3779 70.4697 40.213C70.4697 40.2383 70.4697 40.2636 70.4697 40.2636C70.5701 42.7943 75.2383 40.5673 75.2383 40.5673Z" fill="#8D8E8E"/>
<path d="M48.058 31.558C48.058 31.558 47.9074 31.7098 47.8572 32.6968C47.8321 33.2789 47.9074 33.8356 47.8321 34.4177C47.7568 35.0504 47.6313 35.2781 47.4807 35.5565C47.0289 36.3663 46.3513 36.341 45.8745 36.1386C46.2509 35.759 47.5309 34.3671 47.2548 32.874C47.2548 32.874 46.7529 35.3034 45.2721 35.8096C45.247 35.7843 45.2219 35.7843 45.2219 35.7843C43.189 34.0634 48.058 31.558 48.058 31.558Z" fill="#8D8E8E"/>
<path d="M61.9866 35.6072C61.9866 35.6072 62.0117 35.759 61.585 36.3917C61.334 36.746 61.0328 37.075 60.807 37.4799C60.556 37.9101 60.5309 38.1126 60.5058 38.3657C60.4305 39.0743 60.8572 39.3779 61.2336 39.4792C61.1583 39.0743 61.0077 37.6064 61.8611 36.8219C61.8611 36.8219 61.0579 38.5681 61.7356 39.5551C61.7607 39.5551 61.7858 39.5551 61.7858 39.5551C63.8689 39.4286 61.9866 35.6072 61.9866 35.6072Z" fill="#8D8E8E"/>
<path d="M19.1454 19.0815C19.1454 19.0815 19.1454 19.3093 18.3925 20.0685C17.9407 20.524 17.4638 20.8783 17.0623 21.3592C16.6105 21.8906 16.5352 22.169 16.4348 22.498C16.1337 23.4597 16.6607 23.9658 17.1627 24.2189C17.1627 23.6368 17.3133 21.5869 18.6936 20.6759C18.6936 20.6759 17.1376 22.8776 17.8403 24.4467C17.8905 24.4467 17.9156 24.4467 17.9156 24.4467C20.7767 24.8516 19.1454 19.0815 19.1454 19.0815Z" fill="white"/>
<path d="M6.4707 25.2059C6.4707 25.2059 6.64639 25.3578 6.69658 26.3701C6.72168 26.9774 6.67148 27.5595 6.77187 28.1669C6.87226 28.8249 6.99775 29.0779 7.17344 29.3563C7.67539 30.1914 8.35303 30.1408 8.85498 29.9384C8.45342 29.5588 7.07305 28.1416 7.34912 26.5725C7.34912 26.5725 7.92637 29.1032 9.48242 29.5841C9.50752 29.5588 9.53262 29.5335 9.53262 29.5335C11.5906 27.686 6.4707 25.2059 6.4707 25.2059Z" fill="white"/>
<path d="M29.209 15.0071C29.209 15.0071 29.3596 14.9312 30.0874 15.2855C30.5141 15.4879 30.9156 15.7663 31.3674 15.9181C31.8693 16.0953 32.0701 16.07 32.3211 16.0447C33.0489 15.9688 33.1995 15.412 33.1995 14.9312C32.823 15.1083 31.4427 15.6398 30.4137 14.8299C30.4137 14.8299 32.3462 15.3614 33.1242 14.3238C33.1242 14.2985 33.0991 14.2732 33.0991 14.2732C32.3964 11.9196 29.209 15.0071 29.209 15.0071Z" fill="white"/>
<path d="M69.7918 28.2933C69.7918 28.2933 69.8169 28.4958 69.2647 29.2297C68.9384 29.6599 68.562 30.0395 68.2608 30.5204C67.9345 31.0518 67.9094 31.2796 67.8592 31.5833C67.7087 32.4437 68.2357 32.8233 68.6875 32.9752C68.6373 32.469 68.5118 30.6975 69.591 29.7611C69.591 29.7611 68.5118 31.8363 69.3149 33.1017C69.34 33.1017 69.3651 33.1017 69.3651 33.1017C71.9 33.0258 69.7918 28.2933 69.7918 28.2933Z" fill="white"/>
<path d="M11.791 45.5529C11.791 45.5529 11.9416 45.4769 12.6694 45.8312C13.0961 46.0337 13.4977 46.3121 13.9494 46.4639C14.4514 46.6411 14.6522 46.6158 14.9031 46.5905C15.631 46.5145 15.7815 45.9578 15.7815 45.4769C15.4051 45.6541 14.0247 46.1855 12.9957 45.3757C12.9957 45.3757 14.9282 45.9072 15.7063 44.8696C15.7063 44.8443 15.6812 44.819 15.6812 44.819C15.0035 42.4654 11.791 45.5529 11.791 45.5529Z" fill="white"/>
<path d="M23.4113 38.2644C23.4113 38.2644 23.4866 38.4922 23.0097 39.4538C22.7337 40.0106 22.3823 40.5167 22.1564 41.1241C21.9054 41.7821 21.9054 42.0605 21.9305 42.4148C21.9556 43.4271 22.6082 43.7307 23.1603 43.8067C22.9846 43.2499 22.4576 41.2506 23.4866 39.96C23.4866 39.96 22.7337 42.5413 23.8881 43.8067C23.9383 43.8067 23.9634 43.8067 23.9634 43.8067C26.8246 43.174 23.4113 38.2644 23.4113 38.2644Z" fill="white"/>
<path d="M32.0451 29.3816C32.0451 29.3816 31.9196 29.5334 30.991 29.5334C30.4388 29.5334 29.9118 29.4575 29.3847 29.5334C28.7824 29.6094 28.5565 29.7106 28.3055 29.8624C27.5275 30.2926 27.5526 30.9253 27.7283 31.3809C28.0797 31.0266 29.4098 29.8371 30.8153 30.1155C30.8153 30.1155 28.5314 30.5457 28.0295 31.9376C28.0546 31.9629 28.0546 31.9882 28.0546 31.9882C29.6106 33.9622 32.0451 29.3816 32.0451 29.3816Z" fill="white"/>
<path d="M63.9942 19.2841C63.9942 19.2841 63.8938 19.4865 62.8648 19.8155C62.2625 19.9927 61.6601 20.0939 61.0829 20.347C60.4303 20.6253 60.2295 20.8278 60.0037 21.0556C59.3009 21.7895 59.5268 22.4728 59.8531 22.9283C60.1292 22.4221 61.2084 20.6506 62.8397 20.5241C62.8397 20.5241 60.4554 21.7389 60.355 23.4597C60.3801 23.485 60.4052 23.5103 60.4052 23.5103C62.8146 25.1553 63.9942 19.2841 63.9942 19.2841Z" fill="white"/>
<path d="M53.353 24.8516C53.353 24.8516 53.4032 25.0793 54.3318 25.6108C54.884 25.9145 55.4361 26.1422 55.9632 26.5218C56.5404 26.9267 56.691 27.1545 56.8667 27.4582C57.3937 28.3186 57.0424 28.9513 56.6157 29.3056C56.4651 28.7489 55.7875 26.8002 54.2063 26.2941C54.2063 26.2941 56.2643 28.015 56.0134 29.7105C55.9883 29.7358 55.9632 29.7358 55.9632 29.7358C53.2526 30.8493 53.353 24.8516 53.353 24.8516Z" fill="#8D8E8E"/>
<path d="M50.2161 16.6774C50.2161 16.6774 50.0655 16.8545 49.0114 16.9557C48.384 17.0064 47.7816 16.9557 47.1542 17.0823C46.4765 17.2088 46.2256 17.3607 45.9244 17.5378C45.0711 18.0946 45.1464 18.8032 45.3722 19.3346C45.7487 18.9044 47.1793 17.4113 48.8106 17.639C48.8106 17.639 46.2256 18.297 45.7487 19.9673C45.7738 19.9926 45.7989 20.0179 45.7989 20.0179C47.7816 22.1437 50.2161 16.6774 50.2161 16.6774Z" fill="white"/>
<path d="M65.927 36.3157C65.927 36.3157 65.9521 36.4675 65.5254 37.1002C65.2744 37.4545 64.9733 37.7835 64.7474 38.1884C64.4964 38.6186 64.4713 38.8211 64.4462 39.0742C64.3709 39.7828 64.7976 40.0864 65.174 40.1877C65.0988 39.7828 64.9482 38.3149 65.8015 37.5304C65.8015 37.5304 64.9984 39.2766 65.676 40.2636C65.7011 40.2636 65.7262 40.2636 65.7262 40.2636C67.7842 40.1371 65.927 36.3157 65.927 36.3157Z" fill="white"/>
<path d="M71.1477 45.9071C71.1477 45.9071 70.9971 45.7805 70.8967 44.8695C70.8465 44.338 70.8465 43.7813 70.7462 43.2498C70.6207 42.6425 70.4952 42.44 70.3195 42.1869C69.8175 41.453 69.2152 41.5289 68.7634 41.7567C69.1399 42.0857 70.445 43.3004 70.2944 44.7176C70.2944 44.7176 69.667 42.4653 68.2364 42.0857C68.2113 42.111 68.1862 42.1363 68.1862 42.1363C66.3792 43.9078 71.1477 45.9071 71.1477 45.9071Z" fill="white"/>
<path d="M6.62109 32.6462C6.62109 32.6462 6.77168 32.5703 7.49951 32.9246C7.92617 33.1271 8.32773 33.4055 8.77949 33.5573C9.28145 33.7345 9.48223 33.7091 9.7332 33.6838C10.461 33.6079 10.6116 33.0512 10.6116 32.5703C10.2352 32.7475 8.85479 33.2789 7.82578 32.4691C7.82578 32.4691 9.7583 33.0005 10.5363 31.963C10.5363 31.9376 10.5112 31.9123 10.5112 31.9123C9.83359 29.5588 6.62109 32.6462 6.62109 32.6462Z" fill="#8D8E8E"/>
<path d="M27.3518 7.46558C27.3518 7.46558 27.3267 7.74395 26.2976 8.6044C25.6953 9.11054 25.0428 9.51545 24.4906 10.0722C23.8632 10.7049 23.7377 11.0086 23.562 11.4135C23.0852 12.5776 23.6624 13.2862 24.2647 13.6405C24.34 12.9066 24.7667 10.3759 26.5988 9.41422C26.5988 9.41422 24.4153 11.9702 25.093 13.9948C25.1432 14.0201 25.1683 14.0201 25.1683 14.0201C28.7321 14.83 27.3518 7.46558 27.3518 7.46558Z" fill="#8B3E8F"/>
<path d="M29.2096 17.1329C29.2096 17.1329 29.1343 17.2595 28.4818 17.4619C28.1053 17.5885 27.7038 17.6391 27.3273 17.7909C26.9006 17.9681 26.7751 18.0946 26.6246 18.2464C26.1477 18.702 26.2983 19.1575 26.4991 19.4612C26.6748 19.1322 27.4026 18.0187 28.4567 17.9428C28.4567 17.9428 26.9006 18.702 26.8253 19.8155C26.8504 19.8408 26.8504 19.8408 26.8504 19.8408C28.3563 20.929 29.2096 17.1329 29.2096 17.1329Z" fill="#8D8E8E"/>
<path d="M63.5675 15.083C63.5675 15.083 63.3918 15.2855 62.1118 15.3108C61.3589 15.3108 60.6311 15.2095 59.8781 15.3108C59.0499 15.412 58.7487 15.5638 58.3974 15.7663C57.3433 16.3484 57.3684 17.2088 57.5942 17.8668C58.0962 17.386 59.9032 15.741 61.8357 16.1459C61.8357 16.1459 58.6985 16.728 57.9958 18.6513C58.0209 18.7019 58.046 18.7019 58.046 18.7019C60.2044 21.4098 63.5675 15.083 63.5675 15.083Z" fill="#EB6639"/>
<path d="M18.5681 40.213C18.5681 40.213 18.5932 40.4155 18.0411 41.1494C17.7148 41.5796 17.3384 41.9592 17.0372 42.44C16.7109 42.9715 16.6858 43.1993 16.6356 43.5029C16.485 44.3634 17.0121 44.743 17.4638 44.8948C17.4136 44.3887 17.2882 42.6172 18.3674 41.6808C18.3674 41.6808 17.2882 43.756 18.0913 45.0214C18.1164 45.0214 18.1415 45.0214 18.1415 45.0214C20.6763 44.9708 18.5681 40.213 18.5681 40.213Z" fill="#D12C30"/>
<path d="M27.7031 49.8297C27.7031 49.8297 27.5776 49.6778 27.6027 48.7415C27.6278 48.1847 27.7031 47.6786 27.678 47.1218C27.6278 46.5144 27.5274 46.2614 27.4019 45.983C27.0254 45.1479 26.4231 45.0972 25.9713 45.1985C26.2976 45.6034 27.3768 47.0965 27.0505 48.4884C27.0505 48.4884 26.7494 46.1348 25.4192 45.4262C25.3941 45.4515 25.369 45.4515 25.369 45.4515C23.4114 46.7675 27.7031 49.8297 27.7031 49.8297Z" fill="#8D8E8E"/>
<path d="M14.6775 39.7321C14.6775 39.7321 14.6022 39.6562 14.6022 39.1501C14.6022 38.8464 14.6524 38.5427 14.6273 38.239C14.6022 37.91 14.5269 37.7835 14.4516 37.657C14.2257 37.2521 13.8493 37.3027 13.5732 37.4292C13.774 37.6064 14.4516 38.2643 14.2759 39.0742C14.2759 39.0742 14.05 37.8088 13.2469 37.6317C13.2218 37.657 13.2218 37.657 13.2218 37.657C12.0422 38.6946 14.6775 39.7321 14.6775 39.7321Z" fill="#8D8E8E"/>
<path d="M27.2769 41.782C27.2769 41.782 27.302 41.6555 27.8793 41.3012C28.2056 41.0988 28.582 40.9469 28.9083 40.7191C29.2597 40.4661 29.3349 40.3142 29.4353 40.1371C29.7114 39.6056 29.4102 39.226 29.084 39.0236C29.0338 39.3779 28.7577 40.5673 27.7287 40.8963C27.7287 40.8963 28.9585 39.8081 28.6322 38.7958C28.6071 38.7958 28.582 38.7705 28.582 38.7705C26.6495 38.1631 27.2769 41.782 27.2769 41.782Z" fill="#8D8E8E"/>
<path d="M17.8905 27.1293C17.8905 27.1293 17.9658 27.3823 17.1627 28.4452C16.7109 29.0526 16.1337 29.6094 15.7321 30.2674C15.2804 31.0013 15.2553 31.3303 15.2051 31.7352C15.0796 32.9246 15.9078 33.3548 16.6357 33.5067C16.4851 32.8487 16.1086 30.4698 17.7148 29.1032C17.7148 29.1032 16.2592 31.9882 17.6145 33.6079C17.6647 33.6079 17.7148 33.6079 17.7148 33.6079C21.6552 33.2536 17.8905 27.1293 17.8905 27.1293Z" fill="#00ABA8"/>
<path d="M24.2403 21.6628C24.2403 21.6628 24.2403 21.8147 23.6881 22.2449C23.387 22.498 23.0356 22.7004 22.7344 23.0041C22.4081 23.3331 22.3328 23.485 22.2576 23.6874C22.0066 24.2948 22.3078 24.6491 22.6089 24.8515C22.6591 24.4719 22.8599 23.156 23.8136 22.6751C23.8136 22.6751 22.6842 23.9911 23.0356 25.054C23.0607 25.054 23.0858 25.054 23.0858 25.054C24.943 25.4842 24.2403 21.6628 24.2403 21.6628Z" fill="#8D8E8E"/>
<path d="M36.3369 20.1951C36.3369 20.1951 36.2867 20.3722 35.5589 20.7518C35.1322 20.9796 34.6805 21.1314 34.2538 21.4098C33.802 21.7135 33.6766 21.8906 33.526 22.1184C33.0742 22.7764 33.3503 23.2572 33.6766 23.5609C33.8271 23.1307 34.4044 21.6376 35.6342 21.2833C35.6342 21.2833 33.9777 22.5486 34.1283 23.8899C34.1534 23.9152 34.1785 23.9152 34.1785 23.9152C36.2114 24.8516 36.3369 20.1951 36.3369 20.1951Z" fill="#568F32"/>
<path d="M72.7032 22.0425C72.7032 22.0425 72.5526 22.1184 72.3519 22.9029C72.2264 23.3584 72.2013 23.8393 72.0507 24.2695C71.875 24.7757 71.7495 24.9275 71.5738 25.1299C71.0719 25.712 70.5448 25.5602 70.1935 25.3324C70.5699 25.1046 71.8248 24.2189 71.8499 22.9535C71.8499 22.9535 71.0468 24.8263 69.7668 24.9781C69.7417 24.9528 69.7417 24.9528 69.7417 24.9528C68.3613 23.2066 72.7032 22.0425 72.7032 22.0425Z" fill="#8D8E8E"/>
<path d="M53.1777 21.1061C53.1777 21.1061 53.4036 21.1567 53.9558 22.0678C54.282 22.5992 54.5079 23.1813 54.8844 23.6874C55.311 24.2442 55.5369 24.396 55.8381 24.5732C56.6914 25.1046 57.3188 24.6997 57.6702 24.2695C57.1181 24.1176 55.1604 23.485 54.6334 21.9159C54.6334 21.9159 56.3651 23.9658 58.0467 23.6621C58.0718 23.6115 58.0718 23.6115 58.0718 23.6115C59.1259 20.8783 53.1777 21.1061 53.1777 21.1061Z" fill="#D12C30"/>
<path d="M40.6533 14.5262C40.6533 14.5262 40.7788 14.6781 41.7074 14.6781C42.2596 14.6781 42.7866 14.6022 43.3137 14.6781C43.916 14.754 44.1419 14.8552 44.3929 15.0071C45.1709 15.4373 45.1458 16.07 44.9701 16.5255C44.6187 16.1712 43.2886 14.9818 41.8831 15.2602C41.8831 15.2602 44.167 15.6904 44.6689 17.0823C44.6438 17.1076 44.6438 17.1329 44.6438 17.1329C43.0878 19.1068 40.6533 14.5262 40.6533 14.5262Z" fill="#8D8E8E"/>
<path d="M45.4219 21.6882C45.4219 21.6882 45.5725 21.8148 45.5976 22.7005C45.6227 23.2067 45.5725 23.7128 45.6227 24.2443C45.6979 24.8263 45.8234 25.0288 45.9489 25.2565C46.3756 25.9651 46.9528 25.9398 47.3795 25.7627C47.0281 25.4337 45.8736 24.2189 46.1246 22.8524C46.1246 22.8524 46.5764 25.0035 47.9065 25.459C47.9316 25.4337 47.9567 25.4337 47.9567 25.4337C49.7889 23.89 45.4219 21.6882 45.4219 21.6882Z" fill="#E4368B"/>
<path d="M52.7505 11.3376C52.7505 11.3376 52.7505 11.5401 51.9976 12.1981C51.5709 12.5777 51.094 12.8814 50.6925 13.2863C50.2407 13.7418 50.1403 13.9949 50.0399 14.2733C49.6886 15.1337 50.1403 15.6399 50.567 15.8929C50.6172 15.3615 50.8933 13.4888 52.2234 12.7802C52.2234 12.7802 50.6423 14.6782 51.1693 16.146C51.1944 16.146 51.2195 16.1713 51.2195 16.1713C53.8548 16.7281 52.7505 11.3376 52.7505 11.3376Z" fill="#8D8E8E"/>
<path d="M38.9722 3.94788C38.9722 3.94788 39.0475 4.07441 38.8718 4.7577C38.7714 5.16262 38.5958 5.51692 38.5456 5.92183C38.4703 6.37736 38.4954 6.55451 38.5456 6.78227C38.6962 7.44026 39.1479 7.54149 39.5244 7.51618C39.3487 7.18719 38.7463 5.97245 39.2483 5.01078C39.2483 5.01078 39.0726 6.75697 39.9761 7.41495C40.0012 7.41495 40.0263 7.38964 40.0263 7.38964C41.7581 6.65574 38.9722 3.94788 38.9722 3.94788Z" fill="#8D8E8E"/>
<path d="M43.7154 8.073C43.7154 8.073 43.6151 8.30076 42.5359 8.62975C41.9084 8.83221 41.281 8.93344 40.6535 9.18651C39.9759 9.46489 39.75 9.69265 39.499 9.94572C38.7461 10.7049 38.9971 11.4388 39.3485 11.9197C39.6496 11.3882 40.7539 9.5155 42.4857 9.36366C42.4857 9.36366 39.9759 10.6543 39.8755 12.4511C39.9006 12.4764 39.9257 12.5017 39.9257 12.5017C42.4606 14.2479 43.7154 8.073 43.7154 8.073Z" fill="#074B3B"/>
<path d="M68.1862 35.6831C68.1862 35.6831 68.2866 35.8096 68.1862 36.5689C68.136 36.9991 68.0105 37.4293 67.9854 37.8848C67.9603 38.391 68.0356 38.5681 68.1109 38.7959C68.3619 39.4792 68.8638 39.5298 69.2654 39.4539C69.0144 39.1249 68.2113 37.9101 68.6128 36.7966C68.6128 36.7966 68.6881 38.72 69.7422 39.302C69.7673 39.2767 69.7924 39.2767 69.7924 39.2767C71.5744 38.2138 68.1862 35.6831 68.1862 35.6831Z" fill="#8D8E8E"/>
<path d="M51.1448 28.5718C51.1448 28.5718 51.1448 28.7995 51.9479 29.5081C52.4247 29.9131 52.9267 30.242 53.3784 30.7229C53.8553 31.229 53.9557 31.5074 54.0812 31.8111C54.4326 32.7475 53.9557 33.3042 53.4788 33.5826C53.4286 33.0005 53.1526 30.9506 51.6969 30.1661C51.6969 30.1661 53.4036 32.2413 52.8012 33.861C52.751 33.861 52.7259 33.8863 52.7259 33.8863C49.8899 34.443 51.1448 28.5718 51.1448 28.5718Z" fill="#00ABA8"/>
<path d="M65.751 46.8182C65.751 46.8182 65.6506 46.6411 65.9267 45.7553C66.1024 45.2239 66.3283 44.743 66.4286 44.2116C66.5541 43.6042 66.529 43.3764 66.4537 43.0727C66.3032 42.2123 65.7008 42.0352 65.1989 42.0352C65.4247 42.4907 66.1275 44.1356 65.4247 45.3757C65.4247 45.3757 65.751 43.0474 64.5965 42.1364C64.5714 42.1364 64.5463 42.1617 64.5463 42.1617C62.1871 43.0474 65.751 46.8182 65.751 46.8182Z" fill="#F08D03"/>
<path d="M65.9524 30.5963C65.9524 30.5963 65.9775 30.7482 65.5508 31.3808C65.2998 31.7351 64.9987 32.0641 64.7728 32.469C64.5218 32.8993 64.4967 33.1017 64.4716 33.3548C64.3963 34.0634 64.823 34.3671 65.1994 34.4683C65.1241 34.0634 64.9736 32.5956 65.8269 31.8111C65.8269 31.8111 65.0238 33.5572 65.7014 34.5442C65.7265 34.5442 65.7516 34.5442 65.7516 34.5442C67.8347 34.4177 65.9524 30.5963 65.9524 30.5963Z" fill="#8D8E8E"/>
<path d="M37.8177 31.1278C37.8177 31.1278 37.8177 31.2797 37.366 31.7605C37.115 32.0389 36.8138 32.2919 36.5628 32.5956C36.3119 32.9499 36.2617 33.1018 36.1864 33.3295C36.0358 33.9369 36.3621 34.2406 36.6632 34.3671C36.6632 34.0128 36.6883 32.7222 37.5417 32.1401C37.5417 32.1401 36.6381 33.532 37.115 34.4937C37.1401 34.4937 37.1652 34.4937 37.1652 34.4937C38.9722 34.6455 37.8177 31.1278 37.8177 31.1278Z" fill="#8D8E8E"/>
</svg>
